<svg width="20" height="21" viewBox="0 0 20 21" fill="none" xmlns="http://www.w3.org/2000/svg">
<g id="check_circle" clip-path="url(#clip0_3660_6674)">
<path id="Vector" d="M10.0013 2.16675C5.4013 2.16675 1.66797 5.90008 1.66797 10.5001C1.66797 15.1001 5.4013 18.8334 10.0013 18.8334C14.6013 18.8334 18.3346 15.1001 18.3346 10.5001C18.3346 5.90008 14.6013 2.16675 10.0013 2.16675ZM7.74297 14.0751L4.7513 11.0834C4.4263 10.7584 4.4263 10.2334 4.7513 9.90841C5.0763 9.58342 5.6013 9.58342 5.9263 9.90841L8.33464 12.3084L14.068 6.57508C14.393 6.25008 14.918 6.25008 15.243 6.57508C15.568 6.90008 15.568 7.42508 15.243 7.75008L8.91797 14.0751C8.6013 14.4001 8.06797 14.4001 7.74297 14.0751Z" fill="#00D27F"/>
</g>
<defs>
<clipPath id="clip0_3660_6674">
<rect width="20" height="20" fill="white" transform="translate(0 0.5)"/>
</clipPath>
</defs>
</svg>
