<svg width="16" height="18" viewBox="0 0 16 18" fill="none" xmlns="http://www.w3.org/2000/svg">
<g id="Group">
<g id="Group_2">
<g id="Group_3">
<path id="Vector" d="M12.7 2.30001L14.14 0.86001C14.46 0.54001 14.23 0.0100098 13.79 0.0100098H7.5C7.22 0.0100098 7 0.23001 7 0.51001V6.80001C7 7.25001 7.54 7.47001 7.85 7.15001L9.3 5.70001C11.27 7.16001 12.55 9.48001 12.55 12.12C12.55 12.78 12.47 13.43 12.31 14.04C12.19 14.54 12.79 14.9 13.15 14.53C14.63 13 15.55 10.92 15.55 8.62001C15.55 6.11001 14.44 3.86001 12.7 2.30001Z" fill="#00D27F"/>
</g>
<g id="Group_4">
<path id="Vector_2" d="M8.14922 10.86L6.69922 12.3C4.72922 10.84 3.44922 8.52 3.44922 5.88C3.44922 5.22 3.52922 4.57 3.68922 3.96C3.80922 3.46 3.20922 3.1 2.84922 3.47C1.36922 5 0.449219 7.08 0.449219 9.38C0.449219 11.9 1.54922 14.15 3.28922 15.71L1.84922 17.15C1.52922 17.47 1.75922 18 2.19922 18H8.48922C8.76922 18 8.98922 17.78 8.98922 17.5V11.21C8.99922 10.77 8.45922 10.54 8.14922 10.86Z" fill="#00D27F"/>
</g>
</g>
</g>
</svg>
