<svg width="25" height="24" viewBox="0 0 25 24" fill="none" xmlns="http://www.w3.org/2000/svg">
<g id="email" clip-path="url(#clip0_3328_6672)">
<path id="Vector" d="M20.5 4H4.5C3.4 4 2.51 4.9 2.51 6L2.5 18C2.5 19.1 3.4 20 4.5 20H20.5C21.6 20 22.5 19.1 22.5 18V6C22.5 4.9 21.6 4 20.5 4ZM20.1 8.25L13.03 12.67C12.71 12.87 12.29 12.87 11.97 12.67L4.9 8.25C4.65 8.09 4.5 7.82 4.5 7.53C4.5 6.86 5.23 6.46 5.8 6.81L12.5 11L19.2 6.81C19.77 6.46 20.5 6.86 20.5 7.53C20.5 7.82 20.35 8.09 20.1 8.25Z" fill="white"/>
</g>
<defs>
<clipPath id="clip0_3328_6672">
<rect width="24" height="24" fill="white" transform="translate(0.5)"/>
</clipPath>
</defs>
</svg>
