<svg width="24" height="20" viewBox="0 0 24 20" fill="none" xmlns="http://www.w3.org/2000/svg">
<g id="fa-solid:hands-helping" clip-path="url(#clip0_3192_7247)">
<path id="Vector" d="M18.3009 7.20017H12.6009V9.30017C12.6009 10.7889 11.3896 12.0002 9.90085 12.0002C8.4121 12.0002 7.20085 10.7889 7.20085 9.30017V4.74017L4.7671 6.20267C4.04335 6.63392 3.60085 7.41767 3.60085 8.25767V10.0314L0.600855 11.7639C0.0271053 12.0939 -0.171645 12.8289 0.162105 13.4027L3.16211 18.6002C3.49211 19.1739 4.22711 19.3689 4.80086 19.0389L8.67835 16.8002H13.8009C15.1246 16.8002 16.2009 15.7239 16.2009 14.4002H16.8009C17.4646 14.4002 18.0009 13.8639 18.0009 13.2002V10.8002H18.3009C18.7996 10.8002 19.2009 10.3989 19.2009 9.90017V8.10017C19.2009 7.60142 18.7996 7.20017 18.3009 7.20017ZM23.8396 5.79767L20.8396 0.600165C20.5096 0.0264153 19.7746 -0.168585 19.2009 0.161415L15.3234 2.40017H11.4909C11.0409 2.40017 10.6021 2.52767 10.2196 2.76392L8.96336 3.54767C8.61086 3.76517 8.40086 4.15142 8.40086 4.56392V9.30017C8.40086 10.1289 9.0721 10.8002 9.90085 10.8002C10.7296 10.8002 11.4009 10.1289 11.4009 9.30017V6.00017H18.3009C19.4596 6.00017 20.4009 6.94142 20.4009 8.10017V9.16892L23.4009 7.43642C23.9746 7.10267 24.1696 6.37142 23.8396 5.79767Z" fill="#00D27F"/>
</g>
<defs>
<clipPath id="clip0_3192_7247">
<rect width="24" height="19.2" fill="white"/>
</clipPath>
</defs>
</svg>
