<svg width="24" height="22" viewBox="0 0 24 22" fill="none" xmlns="http://www.w3.org/2000/svg">
<g id="Group">
<path id="Vector" d="M20 3.6665H4C2.9 3.6665 2 4.4915 2 5.49984V16.4998C2 17.5082 2.9 18.3332 4 18.3332H13V16.4998H4V7.33317L10.94 11.3115C11.59 11.6873 12.41 11.6873 13.06 11.3115L20 7.33317V11.9165H22V5.49984C22 4.4915 21.1 3.6665 20 3.6665ZM12 10.0832L4 5.49984H20L12 10.0832ZM19 14.859C19 14.4465 19.54 14.2448 19.85 14.5382L22.64 17.0957C22.84 17.279 22.84 17.5632 22.64 17.7465L19.85 20.304C19.54 20.5882 19 20.3865 19 19.974V18.3332H16C15.45 18.3332 15 17.9207 15 17.4165C15 16.9123 15.45 16.4998 16 16.4998H19V14.859Z" fill="#B7B6B6"/>
</g>
</svg>
