<svg width="18" height="18" viewBox="0 0 18 18" fill="none" xmlns="http://www.w3.org/2000/svg">
<g id="Group">
<g id="Group_2">
<path id="Vector" d="M14 8.00006C14.34 8.00006 14.67 8.04006 15 8.09006V4.58006C15 3.78006 14.53 3.06006 13.8 2.75006L8.3 0.350059C7.79 0.130059 7.21 0.130059 6.7 0.350059L1.2 2.75006C0.47 3.07006 0 3.79006 0 4.58006V8.18006C0 12.7201 3.2 16.9701 7.5 18.0001C8.05 17.8701 8.58 17.6801 9.1 17.4501C8.41 16.4701 8 15.2801 8 14.0001C8 10.6901 10.69 8.00006 14 8.00006Z" fill="#00D27F"/>
<path id="Vector_2" d="M14 10C11.79 10 10 11.79 10 14C10 16.21 11.79 18 14 18C16.21 18 18 16.21 18 14C18 11.79 16.21 10 14 10ZM14 11.38C14.62 11.38 15.12 11.89 15.12 12.5C15.12 13.11 14.61 13.62 14 13.62C13.39 13.62 12.88 13.11 12.88 12.5C12.88 11.89 13.38 11.38 14 11.38ZM14 16.75C13.07 16.75 12.26 16.29 11.76 15.58C11.81 14.86 13.27 14.5 14 14.5C14.73 14.5 16.19 14.86 16.24 15.58C15.74 16.29 14.93 16.75 14 16.75Z" fill="#00D27F"/>
</g>
</g>
</svg>
