<svg width="25" height="24" viewBox="0 0 25 24" fill="none" xmlns="http://www.w3.org/2000/svg">
<g id="phone" clip-path="url(#clip0_3328_6669)">
<path id="Vector" d="M19.731 15.2598L17.191 14.9698C16.581 14.8998 15.981 15.1098 15.551 15.5398L13.711 17.3798C10.881 15.9398 8.56102 13.6298 7.12102 10.7898L8.97102 8.93976C9.40102 8.50977 9.61102 7.90977 9.54102 7.29977L9.25102 4.77977C9.13102 3.76977 8.28102 3.00977 7.26102 3.00977H5.53102C4.40102 3.00977 3.46102 3.94977 3.53102 5.07977C4.06102 13.6198 10.891 20.4398 19.421 20.9698C20.551 21.0398 21.491 20.0998 21.491 18.9698V17.2398C21.501 16.2298 20.741 15.3798 19.731 15.2598Z" fill="white"/>
</g>
<defs>
<clipPath id="clip0_3328_6669">
<rect width="24" height="24" fill="white" transform="translate(0.5)"/>
</clipPath>
</defs>
</svg>
