<svg width="25" height="24" viewBox="0 0 25 24" fill="none" xmlns="http://www.w3.org/2000/svg">
<g id="whatsapp_filled">
<path id="Vector" d="M12.5 2C18.023 2 22.5 6.477 22.5 12C22.5 17.523 18.023 22 12.5 22C10.7328 22.0029 8.99667 21.5352 7.47001 20.645L2.50401 22L3.85601 17.032C2.96511 15.5049 2.49706 13.768 2.50001 12C2.50001 6.477 6.97701 2 12.5 2ZM9.09201 7.3L8.89201 7.308C8.76254 7.31589 8.63599 7.3499 8.52001 7.408C8.41153 7.46943 8.31251 7.54622 8.22601 7.636C8.10601 7.749 8.03801 7.847 7.96501 7.942C7.59514 8.4229 7.39599 9.01331 7.39901 9.62C7.40101 10.11 7.52901 10.587 7.72901 11.033C8.13801 11.935 8.81101 12.89 9.69901 13.775C9.91301 13.988 10.123 14.202 10.349 14.401C11.4524 15.3725 12.7673 16.073 14.189 16.447L14.757 16.534C14.942 16.544 15.127 16.53 15.313 16.521C15.6043 16.506 15.8886 16.4271 16.146 16.29C16.277 16.2225 16.4048 16.1491 16.529 16.07C16.529 16.07 16.572 16.042 16.654 15.98C16.789 15.88 16.872 15.809 16.984 15.692C17.067 15.606 17.139 15.505 17.194 15.39C17.272 15.227 17.35 14.916 17.382 14.657C17.406 14.459 17.399 14.351 17.396 14.284C17.392 14.177 17.303 14.066 17.206 14.019L16.624 13.758C16.624 13.758 15.754 13.379 15.222 13.137C15.1663 13.1127 15.1067 13.0988 15.046 13.096C14.9776 13.089 14.9085 13.0967 14.8433 13.1186C14.7781 13.1405 14.7183 13.1761 14.668 13.223C14.663 13.221 14.596 13.278 13.873 14.154C13.8315 14.2098 13.7744 14.2519 13.7088 14.2751C13.6433 14.2982 13.5723 14.3013 13.505 14.284C13.4399 14.2665 13.376 14.2445 13.314 14.218C13.19 14.166 13.147 14.146 13.062 14.11C12.4881 13.8595 11.9567 13.5211 11.487 13.107C11.361 12.997 11.244 12.877 11.124 12.761C10.7306 12.3842 10.3877 11.958 10.104 11.493L10.045 11.398C10.0026 11.3342 9.96837 11.2653 9.94301 11.193C9.90501 11.046 10.004 10.928 10.004 10.928C10.004 10.928 10.247 10.662 10.36 10.518C10.47 10.378 10.563 10.242 10.623 10.145C10.741 9.955 10.778 9.76 10.716 9.609C10.436 8.925 10.146 8.244 9.84801 7.568C9.78901 7.434 9.61401 7.338 9.45501 7.319C9.40101 7.313 9.34701 7.307 9.29301 7.303C9.15872 7.29633 9.02415 7.29766 8.89001 7.307L9.09101 7.299L9.09201 7.3Z" fill="#00D27F"/>
</g>
</svg>
